<?xml version="1.0" encoding="UTF-8"?><svg id="Layer_1" xmlns="http://www.w3.org/2000/svg" viewBox="0 0 594.55 355.64"><defs><style>.cls-1{fill:#fff;}</style></defs><path class="cls-1" d="M594.55,355.64H0C0,237.09,0,118.55,0,0c198.18,0,396.36,0,594.55,0,0,118.55,0,237.09,0,355.64ZM166.08,219.8c.13-.49,.13-.35,.08-.33-3.41,1.7-6.86,3.32-10.21,5.13-.76,.41-1.16,1.5-1.72,2.27,.97,.05,2.08,.43,2.87,.08,3.49-1.52,6.84-3.39,10.36-4.85,1.15-.48,2.75-.41,3.99-.05,3.21,.93,6.26,2.52,9.51,3.22,22.18,4.78,43.29,1.09,63.6-8.45,.86-.4,1.71-.82,3.17-1.53-3.81,8.03-7.33,15.44-10.81,22.77-1.16-.12-2.05-.32-2.94-.28-2.31,.11-4.16,2.2-3.83,4.4,.4,2.68,2.4,2.14,4.21,1.96,1.26-.12,2.53-.14,3.8-.21,1.89-.11,2.93-1.44,2.17-2.89-1.06-2.02-.17-3.4,.58-4.99,2.06-4.35,4.12-8.7,6.18-13.04,.72-1.52,1.47-3.02,2.54-5.22,1.23,7.46,2.38,14.06,3.33,20.7,.11,.73-.7,1.8-1.36,2.39-1.5,1.31-1.87,3.21-.58,4.16,1.86,1.38,6.4,.26,7.16-1.93,.26-.74-.05-2.39-.51-2.56-2.1-.79-2.04-2.56-2.32-4.2-.51-2.95-.96-5.91-1.43-8.86-.64-4.07-1.28-8.14-1.93-12.31,14.39,3.42,28.59,4.45,43.33,3.72-2.45,3.62-4.8,6.84-6.84,10.25-.56,.93-.6,2.55-.2,3.6,.79,2.07,2.04,3.96,3.03,5.79-1.29,1.02-2.68,1.66-3.3,2.73-.58,1.02-.35,2.5-.47,3.78,1.27,.05,2.71,.51,3.77,.05,1.35-.58,2.46-1.81,3.52-2.91,1.18-1.23,1.47-2.3-.05-3.89-4.66-4.9-4.66-6.84-.84-12.46,.77-1.13,1.65-2.19,2.26-3.4,.54-1.08,.79-2.31,1.24-3.73h8.06c-1.99,3.21-3.82,6.32-5.81,9.32-1.02,1.53-1.03,2.7,.23,4.1,1.48,1.65,2.74,3.51,3.96,5.09-1.19,1.64-2.29,2.87-3.07,4.29-.75,1.36-.07,2.3,1.47,2.4,2.33,.16,5.78-2.1,6.33-4.37,.21-.86-.1-2.19-.68-2.85-2.02-2.25-4.27-4.3-6.42-6.41,2.16-3.48,4.03-6.58,6.01-9.62,1.16-1.78,2.33-3.58,4.9-3.55,6.02,.06,9.92-3.26,12.82-8.16,1.25-2.12,1.52-4.35,.33-6.48-1.19-2.13-2.92-3.97-3.98-6.14-.73-1.51-1.41-3.62-.91-5.03,.95-2.65,2.56-5.13,4.28-7.4,1.96-2.59,4.82-4.58,6.39-7.34,2.19-3.86,2.71-8.14,.68-12.54-2.79-6.05-1.94-9.64,2.8-14.13,.46-.43,1.02-.86,1.24-1.41,.19-.47,.16-1.33-.15-1.62-.32-.3-1.32-.4-1.63-.13-3.25,2.82-6.6,5.79-6.36,10.54,.14,2.82,.93,5.68,1.85,8.38,1.51,4.41,.57,8.23-2.23,11.68-1.42,1.75-3.16,3.25-4.77,4.85-6.32,6.3-6.73,11.42-1.48,18.37,.65,.86,1.37,1.78,1.64,2.79,.32,1.15,.63,2.67,.15,3.61-1.67,3.26-3.77,5.99-7.83,6.89-15.73,3.47-31.54,3.19-47.4,1.34-4.99-.58-9.93-1.56-13.98-2.21,3.09-3.6,6.09-7.2,9.23-10.69,.53-.59,1.59-.81,2.45-1.01,10.35-2.36,20.72-4.66,31.06-7.08,.83-.19,1.47-1.17,2.2-1.79-.92-.26-1.92-.89-2.76-.73-4.19,.81-8.33,1.83-12.49,2.76-5.9,1.32-11.8,2.63-17.48,3.9-.22-5.73,2.86-7.86,8.01-8.65,5.45-.83,10.78-2.45,16.12-3.86,.78-.2,1.36-1.13,2.03-1.73-.9-.29-1.8-.83-2.7-.81-1.15,.03-2.29,.51-3.43,.79-6.21,1.5-12.43,2.99-18.71,4.5-.41-1.6-.74-2.89-1.09-4.28,2.99-1.3,5.8-2.53,8.62-3.75,4.66-2.02,9.35-3.97,13.96-6.1,.76-.35,1.17-1.47,1.75-2.24-.96-.05-1.92-.12-2.87-.13-.25,0-.5,.19-.75,.3-6.66,2.88-13.34,5.7-19.95,8.69-1.64,.74-2.48,.45-3.65-.84-1.57-1.73-3.29-3.57-5.34-4.57-3.02-1.46-3.63-3.74-3.92-6.69-1.07-11.03-2.3-22.04-3.54-33.05-.11-.97-.78-1.88-1.18-2.81-.83,.6-1.84,1.05-2.45,1.81-8.31,10.46-16.53,20.98-24.86,31.42-.76,.96-2.04,1.83-3.21,2.08-8.41,1.81-16.85,3.5-25.3,5.09-1.02,.19-2.51-.13-3.26-.8-3.52-3.15-6.85-6.5-10.26-9.78-5.3-5.11-10.58-10.24-15.92-15.31-.59-.56-1.51-.77-2.28-1.14-.32,.85-.93,1.71-.92,2.56,.01,2.27,.21,4.54,.48,6.79,1.23,10.54,2.49,21.08,3.79,31.61,.23,1.83-.38,3.16-1.37,4.72-1.96,3.1-3.37,6.56-5.11,9.8-.49,.9-1.21,1.99-2.08,2.31-3.57,1.31-7.25,2.37-10.88,3.51-1.38,.44-2.84,.73-4.13,1.36-.82,.4-1.39,1.32-2.07,2,.92,.2,1.87,.63,2.76,.53,1.15-.12,2.25-.67,3.38-1.02,4.21-1.32,8.42-2.63,12.66-3.95,.62,2.04,1.17,3.83,1.75,5.74-7.35,2.7-14.58,5.36-21.81,8.03-.85,.31-1.76,.58-2.47,1.1-.37,.27-.55,1.12-.43,1.61,.08,.33,.84,.73,1.27,.71,.7-.04,1.38-.4,2.06-.65,7.07-2.6,14.13-5.24,21.22-7.78,.78-.28,2.08-.32,2.61,.14,1.27,1.11,2.22,2.58,3.49,4.14Zm-55.63-61.67c1.79-.74,3.79-1.38,5.61-2.36,2.14-1.16,3.99-2.94,6.2-3.91,9.75-4.25,17.99-10.48,24.94-18.47,3.54-4.07,6.5-8.52,7.98-13.79,1.66-5.95,.61-11.41-3.51-16.02-3.61-4.04-7.93-7.17-13.27-8.68-3.31-.93-6.58-2.02-9.88-2.98-8.22-2.4-16.59-3.94-25.16-4.09-12.03-.22-23.33,3.13-34.4,7.36-11.52,4.41-21.77,11.19-32.19,17.64-11.58,7.17-15.93,18.07-15.29,31.06,.73,14.79,9.79,23.02,24.48,22.42,6.87-.28,13.75-1.23,20.52-2.47,12.21-2.24,24.5-3.03,36.86-3.03,1.18,0,2.73,.78,3.46,1.71,1.48,1.88,2.17,4.43,3.78,6.14,8.37,8.87,18.42,15.25,29.91,19.3,1.92,.68,4.08,.77,6.14,.86,.56,.02,1.15-.98,1.73-1.51-.61-.37-1.18-.9-1.85-1.07-2.79-.72-5.75-.99-8.39-2.05-7.99-3.19-15.2-7.74-21.64-13.44-2.16-1.91-4.03-4.17-5.87-6.4-.56-.68-.77-1.8-.79-2.72-.02-1.09,.36-2.18,.61-3.52Zm421.58,67.78c.67-2.46,2.42-5.3,1.68-7.15-.73-1.85-3.95-2.71-6.15-4.05,2.26-5.4-.06-8.99-6.4-9.06-6.09-.07-12.18-.06-18.26-.04-7.65,.03-11.69,5.08-10.04,12.65-1.93,1.38-3.9,2.81-5.89,4.21-2.3,1.62-2.56,3.65-.47,5.7,1.05,1.03,2.43,1.74,3.76,2.66-2.1,1.1-4.51,1.76-5.94,3.3-1.3,1.4-2.22,3.83-2.09,5.72,.15,2.06,2.3,3.02,4.55,3,2.36-.02,4.74-.09,7.08,.13,12.92,1.21,25.57,.74,37.34-5.66,.4-.21,.86-.3,1.26-.51,1.65-.84,3.4-1.54,4.89-2.6,1.53-1.08,1.62-2.67,.17-3.94-1.87-1.64-3.9-3.12-5.48-4.37Zm-7.4-35.51h-.05c0,.91-.16,1.85,.04,2.71,.22,.92,.78,1.76,1.2,2.64,.46-.92,1.2-1.81,1.33-2.77,.23-1.69,.09-3.44,.1-5.16,0-1.44,.59-2.16,2.12-2.57,4.11-1.1,6.32-4.37,6.33-8.69,0-.95,0-2.19,.55-2.79,2.73-2.97,3.94-6.41,3.98-10.4,0-.94,.7-1.84,.9-2.8,.16-.76,.07-1.58,.09-2.38-.82,.34-2.12,.46-2.38,1.05-.72,1.62-.9,3.46-1.49,5.15-.81,2.33-1.84,4.59-2.7,6.9-.64,1.71-1.55,3.44-1.65,5.2-.2,3.38-1.52,5.48-4.82,6.23-2.27,.52-3.47,1.84-3.55,4.15-.04,1.18,0,2.36,0,3.54Zm-11.94-13.24c2.27-5.18,3.82-10,1.59-15.06-.35-.8-.97-1.48-1.47-2.21-.42,.77-.9,1.51-1.22,2.32-.15,.38-.12,.97,.07,1.34,2,3.83,.52,7.36-.75,10.98-.83,2.37-1.09,4.8,1.63,6.19-.47,1.77-1.01,3.33-1.27,4.93-.29,1.78-.44,3.6-.38,5.39,.02,.52,1,1,1.54,1.49,.44-.57,1.14-1.08,1.26-1.71,.59-3.16,.81-6.41,1.6-9.52,.56-2.18,.89-3.79-2.6-4.14Zm-16.6,12.91c.32-1.07,.49-1.85,.79-2.57,1.76-4.33,1.64-4.68-1.93-7.53-.56-.45-1.05-1.49-.95-2.17,.57-4.11-.15-5.4-4.1-6.21-.74-.15-1.63,.44-2.46,.69,.53,.61,.97,1.37,1.63,1.8,.79,.52,1.77,.76,2.7,1.14-.78,2.56-1.55,5.2,1.06,6.58,2.73,1.45,2.35,2.95,1.32,5.21-1.57,3.42-.47,5.31,3.16,6.12,.61,.14,1.21,.59,1.78,.54,.76-.08,1.48-.51,2.22-.79-.43-.68-.71-1.68-1.33-1.98-1.02-.49-2.26-.51-3.88-.83Zm-114.12-14.42c.12-.13,.24-.26,.36-.39-.68-.47-1.31-1.04-2.05-1.35-.26-.11-1.07,.38-1.14,.7-.38,1.81-.62,3.65-.91,5.48,.25,.03,.5,.07,.75,.1,.3-1.76,.6-3.51,.94-5.47,.82,.37,1.43,.64,2.05,.92Zm-21.74,43.06c-.6,3.6,1.25,4.43,3.51,4.94-1.03-1.45-2.06-2.89-3.51-4.94Z"/><path d="M166.08,219.8c-1.27-1.56-2.22-3.03-3.49-4.14-.53-.46-1.83-.42-2.61-.14-7.09,2.53-14.15,5.17-21.22,7.78-.68,.25-1.37,.6-2.06,.65-.43,.03-1.19-.37-1.27-.71-.12-.5,.06-1.34,.43-1.61,.71-.53,1.62-.79,2.47-1.1,7.23-2.67,14.46-5.33,21.81-8.03-.59-1.92-1.13-3.71-1.75-5.74-4.23,1.32-8.45,2.63-12.66,3.95-1.13,.35-2.23,.9-3.38,1.02-.89,.09-1.84-.34-2.76-.53,.68-.68,1.25-1.6,2.07-2,1.29-.63,2.74-.92,4.13-1.36,3.64-1.15,7.31-2.2,10.88-3.51,.87-.32,1.6-1.41,2.08-2.31,1.75-3.25,3.15-6.7,5.11-9.8,.99-1.56,1.59-2.89,1.37-4.72-1.3-10.53-2.56-21.07-3.79-31.61-.26-2.25-.46-4.53-.48-6.79,0-.85,.6-1.71,.92-2.56,.77,.37,1.69,.58,2.28,1.14,5.34,5.07,10.62,10.2,15.92,15.31,3.4,3.28,6.74,6.63,10.26,9.78,.75,.67,2.24,.99,3.26,.8,8.46-1.59,16.89-3.27,25.3-5.09,1.18-.25,2.45-1.12,3.21-2.08,8.33-10.44,16.56-20.96,24.86-31.42,.61-.77,1.63-1.22,2.45-1.81,.41,.94,1.07,1.84,1.18,2.81,1.24,11.01,2.47,22.02,3.54,33.05,.29,2.95,.9,5.22,3.92,6.69,2.05,.99,3.77,2.83,5.34,4.57,1.17,1.29,2.01,1.59,3.65,.84,6.61-2.99,13.29-5.81,19.95-8.69,.25-.11,.5-.3,.75-.3,.96,0,1.92,.08,2.87,.13-.57,.76-.98,1.88-1.75,2.24-4.61,2.13-9.3,4.08-13.96,6.1-2.82,1.22-5.64,2.45-8.62,3.75,.35,1.39,.68,2.68,1.09,4.28,6.29-1.51,12.5-3.01,18.71-4.5,1.15-.28,2.28-.76,3.43-.79,.89-.02,1.8,.52,2.7,.81-.67,.59-1.26,1.52-2.03,1.73-5.35,1.41-10.68,3.03-16.12,3.86-5.15,.79-8.23,2.91-8.01,8.65,5.69-1.27,11.59-2.58,17.48-3.9,4.16-.93,8.31-1.95,12.49-2.76,.84-.16,1.84,.46,2.76,.73-.73,.61-1.37,1.6-2.2,1.79-10.34,2.42-20.71,4.71-31.06,7.08-.86,.2-1.91,.41-2.45,1.01-3.14,3.48-6.14,7.08-9.23,10.69,4.05,.65,8.99,1.63,13.98,2.21,15.85,1.85,31.66,2.13,47.4-1.34,4.06-.89,6.16-3.63,7.83-6.89,.48-.95,.17-2.46-.15-3.61-.28-1.01-.99-1.93-1.64-2.79-5.25-6.95-4.85-12.08,1.48-18.37,1.61-1.6,3.34-3.1,4.77-4.85,2.8-3.45,3.74-7.27,2.23-11.68-.92-2.7-1.71-5.56-1.85-8.38-.24-4.76,3.11-7.72,6.36-10.54,.31-.27,1.31-.17,1.63,.13,.31,.29,.34,1.15,.15,1.62-.22,.55-.78,.98-1.24,1.41-4.74,4.5-5.59,8.09-2.8,14.13,2.03,4.4,1.51,8.68-.68,12.54-1.57,2.76-4.44,4.76-6.39,7.34-1.71,2.27-3.33,4.75-4.28,7.4-.5,1.41,.17,3.52,.91,5.03,1.06,2.18,2.79,4.02,3.98,6.14,1.19,2.13,.92,4.36-.33,6.48-2.89,4.91-6.79,8.23-12.82,8.16-2.57-.03-3.74,1.77-4.9,3.55-1.98,3.03-3.84,6.14-6.01,9.62,2.16,2.12,4.4,4.16,6.42,6.41,.59,.65,.89,1.98,.68,2.85-.55,2.27-4,4.53-6.33,4.37-1.54-.11-2.21-1.04-1.47-2.4,.77-1.41,1.87-2.65,3.07-4.29-1.21-1.58-2.47-3.44-3.96-5.09-1.26-1.41-1.25-2.57-.23-4.1,1.99-3,3.82-6.11,5.81-9.32h-8.06c-.46,1.42-.7,2.65-1.24,3.73-.61,1.21-1.5,2.27-2.26,3.4-3.82,5.62-3.82,7.57,.84,12.46,1.52,1.6,1.23,2.66,.05,3.89-1.06,1.1-2.18,2.33-3.52,2.91-1.05,.45-2.5,0-3.77-.05,.12-1.28-.11-2.76,.47-3.78,.62-1.08,2.01-1.72,3.3-2.73-.99-1.83-2.25-3.72-3.03-5.79-.4-1.05-.36-2.67,.2-3.6,2.04-3.4,4.39-6.63,6.84-10.25-14.74,.73-28.94-.3-43.33-3.72,.65,4.18,1.29,8.24,1.93,12.31,.47,2.96,.92,5.91,1.43,8.86,.28,1.64,.23,3.4,2.32,4.2,.45,.17,.77,1.81,.51,2.56-.76,2.19-5.3,3.31-7.16,1.93-1.29-.96-.92-2.85,.58-4.16,.67-.58,1.47-1.66,1.36-2.39-.96-6.63-2.1-13.24-3.33-20.7-1.07,2.2-1.82,3.7-2.54,5.22-2.07,4.34-4.12,8.69-6.18,13.04-.75,1.59-1.64,2.96-.58,4.99,.76,1.45-.28,2.79-2.17,2.89-1.27,.07-2.54,.09-3.8,.21-1.81,.18-3.81,.72-4.21-1.96-.33-2.19,1.53-4.29,3.83-4.4,.89-.04,1.78,.16,2.94,.28,3.48-7.33,7-14.74,10.81-22.77-1.46,.7-2.31,1.12-3.17,1.53-20.31,9.55-41.41,13.23-63.6,8.45-3.25-.7-6.3-2.29-9.51-3.22-1.24-.36-2.84-.43-3.99,.05-3.52,1.46-6.86,3.32-10.36,4.85-.79,.35-1.91-.04-2.87-.08,.56-.78,.96-1.86,1.72-2.27,3.35-1.81,6.8-3.43,10.21-5.13,.05-.03,.05-.17-.08,.33Zm6.83-.33c22.79,11.57,69.12,2.67,85.39-16.01-.74-.6-1.46-1.18-2.19-1.76,.74-.52,1.41-1.3,2.23-1.52,4.2-1.14,5.43-2.65,5.94-7.94-1.72,.37-3.36,.83-5.02,1.01-.49,.05-1.06-.67-1.6-1.03,.33-.47,.56-1.17,1.01-1.37,.98-.44,2.07-.63,3.13-.9,3.3-.84,3.45-1.24,1.44-4.31-1.06,.46-2.1,1.09-3.22,1.33-.8,.17-1.71-.2-2.57-.33,.53-.71,.93-1.6,1.62-2.1,.89-.64,2.01-.97,3.51-1.65-2.07-1.81-4.06-3.07-5.37-4.83-1.56-2.1-3.96,2.36-4.63-.68-.56-2.52-2.33-2.75-4.05-3.32-8.03-2.68-16.34-3.56-24.72-3.03-2.37,.15-4.79,.34-7.09,.59-6.99,.75-13.86,2.63-20.77,4.13-.55,.12-1.04,.72-1.46,1.18-.74,.83-1.25,2.05-2.16,2.48-.5,.24-1.61-.8-2.72-1.42-6.59,2.58-13.19,5.99-18.86,10.94-1.03,.9-1.45,2.47-2.28,3.65-.4,.56-1.05,.98-1.65,1.35-.4,.24-1.18,.12-1.35,.41-1.48,2.57-2.86,5.19-4.45,8.14,1.08,0,1.26,0,1.43,0,1.47-.01,3.56-2.06,4.25,.14,.7,2.23-2.06,2-3.41,2.44-1.83,.59-2.27,1.55-1.65,3.21,.37,.99,.79,1.96,1.27,3.13,1.88-.67,3.45-1.39,5.1-1.77,.89-.21,1.9,.15,2.86,.26-.68,.77-1.22,1.76-2.06,2.26-1.18,.71-2.58,1.05-4,1.59,3.7,4.4,4.11,4.5,8.61,2.36,1.31-.62,2.57-1.41,3.95-1.82,.75-.22,1.69,.22,2.54,.36-.44,.67-.74,1.6-1.36,1.98-1.76,1.05-3.65,1.87-5.65,2.85Zm78.8-48.19c-1.15-10.61-2.36-21.71-3.63-33.45-8.09,10.28-15.74,20.01-23.22,29.52,8.96,1.31,17.77,2.6,26.85,3.94Zm-63.27,3.52c-7.92-7.63-16.04-15.44-24.47-23.57,1.37,12.33,2.69,24.11,3.96,35.53,6.84-3.99,13.54-7.9,20.51-11.97Z"/><path d="M110.45,158.13c-.25,1.34-.63,2.43-.61,3.52,.01,.92,.23,2.04,.79,2.72,1.84,2.23,3.71,4.49,5.87,6.4,6.44,5.7,13.65,10.26,21.64,13.44,2.65,1.06,5.6,1.33,8.39,2.05,.66,.17,1.23,.71,1.85,1.07-.58,.53-1.18,1.53-1.73,1.51-2.06-.09-4.22-.18-6.14-.86-11.49-4.05-21.54-10.44-29.91-19.3-1.61-1.71-2.31-4.26-3.78-6.14-.73-.93-2.28-1.71-3.46-1.71-12.36,0-24.66,.79-36.86,3.03-6.77,1.24-13.66,2.19-20.52,2.47-14.7,.6-23.76-7.63-24.48-22.42-.64-12.98,3.71-23.88,15.29-31.06,10.42-6.45,20.67-13.24,32.19-17.64,11.06-4.23,22.37-7.58,34.4-7.36,8.58,.16,16.95,1.69,25.16,4.09,3.3,.96,6.57,2.05,9.88,2.98,5.34,1.51,9.66,4.63,13.27,8.68,4.12,4.61,5.17,10.07,3.51,16.02-1.47,5.28-4.43,9.72-7.98,13.79-6.95,7.98-15.18,14.22-24.94,18.47-2.21,.96-4.06,2.74-6.2,3.91-1.82,.99-3.82,1.63-5.61,2.36Zm-15.01,.1c9.1-.04,11.67-.57,19.04-4.7,6.15-3.44,12.29-6.92,18.17-10.8,7.83-5.17,14.39-11.7,18.59-20.23,3.79-7.7,2.11-14.03-4.23-19.75-4.47-4.03-10.02-5.23-15.38-7.11-21.31-7.46-42.4-6.71-62.82,2.68-10.43,4.8-20.32,10.82-30.22,16.69-12.18,7.23-15.88,18.56-13.99,32,1.48,10.56,8.87,16.89,19.51,16.59,6.14-.17,12.29-1.04,18.39-1.92,11.14-1.61,22.21-3.75,32.95-3.45Z"/><path d="M532.04,225.91c1.58,1.25,3.61,2.72,5.48,4.37,1.45,1.27,1.36,2.86-.17,3.94-1.49,1.06-3.24,1.76-4.89,2.6-.4,.2-.86,.29-1.26,.51-11.76,6.4-24.41,6.86-37.34,5.66-2.34-.22-4.72-.15-7.08-.13-2.25,.02-4.4-.94-4.55-3-.13-1.89,.79-4.32,2.09-5.72,1.44-1.55,3.84-2.2,5.94-3.3-1.33-.92-2.71-1.62-3.76-2.66-2.09-2.04-1.83-4.08,.47-5.7,1.99-1.4,3.96-2.82,5.89-4.21-1.66-7.57,2.39-12.62,10.04-12.65,6.09-.02,12.18-.03,18.26,.04,6.35,.07,8.66,3.67,6.4,9.06,2.2,1.34,5.42,2.2,6.15,4.05,.74,1.86-1.01,4.69-1.68,7.15Zm1.93,5.67c-.08-.29-.17-.58-.25-.87-2.35-.8-4.69-1.6-7.04-2.4,.03,.26,.07,.52,.1,.79-.88,.45-1.73,1.15-2.65,1.27-1.2,.16-2.49-.37-3.69-.2-7.35,1.01-14.7,2.04-22.01,3.26-2.56,.43-5.06,1.34-7.51,2.24-.81,.29-1.38,1.21-2.07,1.84,.12,.29,.23,.59,.35,.88,2.82,.53,5.64,1.49,8.46,1.52,11.27,.09,22.06-2.79,32.78-5.88,1.31-.38,2.36-1.6,3.54-2.44Zm-6.6-13.79c-2.35,.45-4.62,.86-6.89,1.32-2.96,.6-5.89,1.63-8.87,1.78-6.22,.3-12.56-.7-18.49,2.03-.85,.39-2.17,1.34-2.09,1.84,.19,1.17,.86,2.87,1.76,3.2,1.59,.59,3.58,.73,5.24,.34,7.96-1.86,15.88-3.76,24.18-3.12,2.78,.22,5.03-1.15,6.55-3.32-.96-.56-1.94-.98-2.64-1.67-.16-.15,.65-1.29,1.23-2.39Zm-2.7-7.02c-2.72-.31-5.13-2.74-7.85-.17-.17,.16-.92-.28-1.39-.46-.99-.38-1.96-1.06-2.96-1.1-1.19-.05-2.39,.46-3.6,.69-2.99,.56-6.06,.85-8.93,1.77-1.19,.38-2.2,1.98-2.84,3.25-.64,1.28,.06,2.36,1.65,2.26,7.3-.45,14.61-.89,21.9-1.47,2.48-.2,3.84-1.77,4.02-4.76Z"/><path d="M524.64,190.39c0-1.18-.03-2.36,0-3.54,.08-2.31,1.28-3.63,3.55-4.15,3.29-.76,4.62-2.86,4.82-6.23,.1-1.76,1.02-3.49,1.65-5.2,.86-2.32,1.89-4.57,2.7-6.9,.59-1.69,.77-3.53,1.49-5.15,.26-.59,1.56-.72,2.38-1.05-.02,.79,.08,1.61-.09,2.38-.21,.96-.9,1.87-.9,2.8-.04,3.99-1.25,7.43-3.98,10.4-.55,.6-.55,1.84-.55,2.79-.01,4.32-2.22,7.59-6.33,8.69-1.54,.41-2.12,1.13-2.12,2.57,0,1.72,.13,3.47-.1,5.16-.13,.97-.87,1.85-1.33,2.77-.41-.88-.98-1.72-1.2-2.64-.2-.86-.04-1.8-.04-2.71h.05Z"/><path d="M512.7,177.16c3.49,.36,3.16,1.96,2.6,4.14-.79,3.11-1.01,6.36-1.6,9.52-.12,.63-.83,1.14-1.26,1.71-.54-.5-1.52-.98-1.54-1.49-.06-1.79,.09-3.62,.38-5.39,.26-1.6,.8-3.16,1.27-4.93-2.71-1.39-2.46-3.82-1.63-6.19,1.27-3.62,2.75-7.15,.75-10.98-.19-.37-.22-.95-.07-1.34,.32-.81,.8-1.55,1.22-2.32,.5,.73,1.12,1.41,1.47,2.21,2.23,5.06,.68,9.88-1.59,15.06Z"/><path d="M496.1,190.07c1.62,.31,2.86,.34,3.88,.83,.62,.29,.9,1.29,1.33,1.98-.74,.28-1.46,.72-2.22,.79-.57,.06-1.17-.4-1.78-.54-3.63-.81-4.72-2.7-3.16-6.12,1.03-2.25,1.41-3.76-1.32-5.21-2.6-1.38-1.84-4.02-1.06-6.58-.93-.38-1.91-.62-2.7-1.14-.65-.43-1.09-1.19-1.63-1.8,.82-.25,1.72-.85,2.46-.69,3.94,.81,4.67,2.1,4.1,6.21-.09,.68,.39,1.72,.95,2.17,3.56,2.85,3.69,3.2,1.93,7.53-.29,.72-.46,1.5-.79,2.57Z"/><path d="M381.98,175.65c-.62-.28-1.23-.55-2.05-.92-.34,1.96-.64,3.71-.94,5.47-.25-.03-.5-.07-.75-.1,.29-1.83,.52-3.67,.91-5.48,.07-.32,.89-.81,1.14-.7,.74,.31,1.38,.88,2.05,1.35-.12,.13-.24,.26-.36,.39Z"/><path d="M360.24,218.7c1.46,2.05,2.49,3.49,3.51,4.94-2.27-.51-4.12-1.34-3.51-4.94Z"/><path class="cls-1" d="M172.91,219.47c1.99-.98,3.89-1.8,5.65-2.85,.62-.37,.92-1.3,1.36-1.98-.85-.14-1.79-.57-2.54-.36-1.38,.4-2.64,1.19-3.95,1.82-4.5,2.14-4.91,2.04-8.61-2.36,1.42-.54,2.82-.89,4-1.59,.84-.5,1.38-1.49,2.06-2.26-.96-.1-1.97-.46-2.86-.26-1.65,.38-3.22,1.1-5.1,1.77-.48-1.17-.9-2.14-1.27-3.13-.62-1.66-.18-2.62,1.65-3.21,1.35-.44,4.11-.21,3.41-2.44-.69-2.2-2.78-.15-4.25-.14-.18,0-.36,0-1.43,0,1.6-2.96,2.97-5.58,4.45-8.14,.17-.29,.95-.17,1.35-.41,.61-.37,1.26-.78,1.65-1.35,.83-1.18,1.25-2.75,2.28-3.65,5.68-4.95,12.28-8.36,18.86-10.94,1.11,.62,2.22,1.66,2.72,1.42,.91-.43,1.42-1.65,2.16-2.48,.42-.47,.91-1.06,1.46-1.18,6.9-1.51,13.78-3.38,20.77-4.13,2.3-.25,4.72-.44,7.09-.59,8.38-.52,16.69,.36,24.72,3.03,1.71,.57,3.49,.8,4.05,3.32,.67,3.04,3.07-1.42,4.63,.68,1.31,1.76,3.3,3.02,5.37,4.83-1.51,.68-2.62,1.01-3.51,1.65-.69,.5-1.09,1.38-1.62,2.1,.86,.13,1.77,.5,2.57,.33,1.12-.24,2.16-.87,3.22-1.33,2.01,3.07,1.87,3.47-1.44,4.31-1.05,.27-2.14,.46-3.13,.9-.45,.2-.68,.9-1.01,1.37,.53,.37,1.11,1.09,1.6,1.03,1.67-.19,3.3-.64,5.02-1.01-.51,5.28-1.74,6.8-5.94,7.94-.82,.22-1.49,1-2.23,1.52,.72,.58,1.44,1.16,2.19,1.76-16.28,18.68-62.61,27.57-85.39,16.01Zm21.05-28.49c-1.25-1.77-2-3.67-3.39-4.52-.85-.51-3.04,.19-4,1.06-2.43,2.19-2.88,5.22-1.89,8.26,.94,2.92,4,3.69,5.98,1.38,1.39-1.62,2.09-3.82,3.3-6.18Zm40.2-9.22c-.48-.68-1.11-2.48-2.3-3-1.11-.48-3.07,.02-4.19,.78-2.31,1.56-3.32,4.01-3.01,6.87,.31,2.9,2.69,4.22,5.3,2.87,2.64-1.37,3.89-3.67,4.2-7.52Zm-20.04,14.05c-1.03,.51-1.61,.76-2.15,1.08-1.33,.8-2.69,1.55-3.92,2.47-.89,.66-1.6,1.56-2.38,2.35,.83,.6,1.61,1.29,2.5,1.78,.87,.48,1.83,.95,2.78,1.05,.62,.06,1.67-.38,1.9-.88,.83-1.8,1.51-3.7,2.01-5.63,.16-.6-.44-1.39-.73-2.22Zm7.82,17.62c-.07-.33-.13-.66-.2-.99-.76-.09-1.62-.47-2.27-.23-2.43,.88-4.76,2.03-7.18,2.94-1.78,.67-3.68,1.03-5.43,1.75-.54,.22-.77,1.18-1.14,1.81,.61,.24,1.31,.8,1.81,.66,4.01-1.14,8.02-2.32,11.95-3.71,.96-.34,1.64-1.46,2.45-2.22Zm-.92-30.38c.38-.21,.79-.29,.96-.55,1.14-1.71,2.29-3.42,3.26-5.23,.18-.33-.38-1.42-.83-1.6-.45-.18-1.39,.16-1.74,.59-1.07,1.29-2.02,2.7-2.88,4.14-.26,.43-.22,1.2-.01,1.68,.17,.41,.78,.63,1.25,.98Zm-24.21,2.69c-1.95-1.57-3.82-3.11-5.77-4.56-.16-.12-1.16,.41-1.2,.72-.08,.63,0,1.51,.4,1.93,1.2,1.28,2.55,2.44,3.92,3.54,.33,.26,1.07,.3,1.46,.11,.39-.2,.58-.8,1.19-1.74Z"/><path class="cls-1" d="M251.71,171.28c-9.08-1.33-17.89-2.62-26.85-3.94,7.48-9.51,15.13-19.23,23.22-29.52,1.27,11.74,2.48,22.84,3.63,33.45Z"/><path class="cls-1" d="M188.45,174.8c-6.98,4.07-13.67,7.97-20.51,11.97-1.27-11.42-2.58-23.2-3.96-35.53,8.43,8.12,16.55,15.93,24.47,23.57Z"/><path class="cls-1" d="M95.44,158.23c-10.74-.31-21.81,1.83-32.95,3.45-6.1,.88-12.24,1.75-18.39,1.92-10.64,.3-18.03-6.03-19.51-16.59-1.88-13.44,1.81-24.77,13.99-32,9.9-5.87,19.79-11.9,30.22-16.69,20.42-9.39,41.5-10.14,62.82-2.68,5.37,1.88,10.91,3.08,15.38,7.11,6.35,5.72,8.03,12.05,4.23,19.75-4.2,8.53-10.76,15.06-18.59,20.23-5.87,3.88-12.02,7.36-18.17,10.8-7.37,4.13-9.94,4.66-19.04,4.7Zm-46.79-23.34c-.24,.11-.49,.22-.73,.32-1.75-2.15-3.47-4.32-5.28-6.42-.57-.66-1.79-1.7-2-1.55-1,.7-2.47,1.4-1.15,3.19,.59,.8,.69,2.03,.83,3.09,.59,4.49,1.07,9,1.7,13.49,.09,.65,.79,1.21,1.21,1.81,.49-.63,1.14-1.19,1.42-1.91,.21-.53-.06-1.24-.13-1.87-.4-3.49-.81-6.98-1.28-11.11,1.59,1.87,2.73,3.39,4.06,4.7,.57,.56,1.66,1.08,2.33,.9,.55-.15,1.05-1.32,1.15-2.09,.34-2.7,.49-5.43,.76-8.71,.44,.94,.65,1.32,.8,1.73,1.4,3.73,2.72,7.49,4.26,11.17,.33,.78,1.44,1.24,2.19,1.85,.22-1.02,.82-2.16,.56-3.05-.46-1.61-1.52-3.04-2.16-4.61-1.47-3.6-2.75-7.29-4.32-10.85-.48-1.08-1.66-1.85-2.52-2.77-.56,1.15-1.51,2.26-1.6,3.44-.23,3.07-.08,6.16-.08,9.25Zm56.15-14.16l-1.18,.56c-1.57-1.92-3.06-3.93-4.76-5.72-.86-.91-2.12-1.44-3.2-2.14-.64,1.19-1.6,2.31-1.86,3.58-.5,2.37-.59,4.83-.85,7.25-2.27-2.98-3.89-6.09-5.57-9.17-.33-.61-.77-1.32-1.35-1.6-.36-.17-1.44,.27-1.53,.62-.19,.68-.12,1.59,.21,2.22,1.44,2.72,2.96,5.41,4.57,8.03,.8,1.3,1.74,2.58,2.88,3.58,1.61,1.43,2.8,1,3.32-1.08,.26-1.04,.3-2.15,.39-3.23,.17-2.02,.3-4.04,.5-6.71,1.54,1.9,2.55,3.28,3.7,4.53,1.44,1.57,3.1,3.09,5.41,1.87,2.34-1.24,2.4-3.56,1.78-5.73-1.38-4.87-2.92-9.7-4.53-14.5-.28-.82-1.25-1.41-1.9-2.11-.25,1.01-.93,2.14-.69,3.01,1.18,4.28,2.65,8.47,3.92,12.72,.39,1.3,.5,2.67,.74,4.01Zm-41.24,5.9c-.31-.09-.63-.19-.94-.28,.1-1.51-.25-3.27,.43-4.45,.7-1.21,2.46-1.76,3.64-2.74,.67-.56,1.09-1.4,1.62-2.11-.99-.11-2.19-.64-2.94-.27-2.25,1.11-4.43,2.43-6.39,3.99-.62,.5-.82,2.13-.53,3.02,.61,1.86,1.81,3.53,2.53,5.37,.88,2.27,1.29,4.73,2.3,6.93,1.29,2.82,4.57,3.54,6.84,1.72,1.12-.89,2.23-1.87,3.03-3.03,.36-.52-.05-1.57-.11-2.38-.7,.09-1.56-.03-2.07,.33-.71,.5-1.06,1.48-1.74,2.05-.63,.53-2.07,1.2-2.15,1.09-1-1.4-2.02-2.86-2.6-4.46-.25-.7,.27-1.99,.86-2.61,1.31-1.36,3-2.36,4.31-3.72,.5-.52,.39-1.64,.55-2.48-.77,.17-1.69,.13-2.29,.55-1.53,1.05-2.92,2.3-4.36,3.47Zm10.25-4.06c-.13,.02-.25,.05-.38,.07,.09,1.35,.02,2.74,.31,4.04,.49,2.23,1.71,4.31,4.06,4.57,1.79,.2,4.06-.15,5.47-1.16,2.54-1.82,3.26-8.02,1.84-11.16-1.67-3.67-4.47-5.29-8.72-5.04-1.65,.1-3.83,2.98-3.46,4.56,.32,1.36,.59,2.74,.88,4.11Zm44.72-13.35c-.28-.91-.37-1.45-.61-1.91-.77-1.54-1.69-3.02-2.37-4.59-.97-2.23-1.71-4.56-2.73-6.76-.25-.53-1.22-.72-1.86-1.06-.21,.69-.76,1.49-.58,2.06,1.36,4.2,2.79,8.38,4.39,12.49,.31,.78,1.47,1.23,2.24,1.84,.54-.73,1.08-1.47,1.52-2.06Zm2.06,15.77c.92-1.69,1.63-2.74,2.02-3.89,.11-.33-.74-.97-1.15-1.47-.87,.9-1.9,1.7-2.51,2.74-.18,.32,.79,1.31,1.64,2.62Z"/><path class="cls-1" d="M533.97,231.58c-1.17,.83-2.23,2.06-3.54,2.44-10.72,3.09-21.51,5.98-32.78,5.88-2.82-.02-5.64-.99-8.46-1.52-.12-.29-.23-.59-.35-.88,.68-.63,1.26-1.55,2.07-1.84,2.45-.89,4.95-1.81,7.51-2.24,7.32-1.23,14.67-2.25,22.01-3.26,1.2-.16,2.49,.36,3.69,.2,.92-.12,1.77-.83,2.65-1.27-.03-.26-.07-.52-.1-.79,2.35,.8,4.69,1.6,7.04,2.4,.08,.29,.17,.58,.25,.87Z"/><path class="cls-1" d="M527.36,217.78c-.59,1.1-1.39,2.23-1.23,2.39,.7,.69,1.68,1.1,2.64,1.67-1.52,2.17-3.77,3.54-6.55,3.32-8.3-.64-16.22,1.27-24.18,3.12-1.66,.39-3.66,.25-5.24-.34-.9-.33-1.57-2.03-1.76-3.2-.08-.5,1.24-1.45,2.09-1.84,5.93-2.73,12.27-1.73,18.49-2.03,2.98-.14,5.91-1.18,8.87-1.78,2.26-.46,4.54-.87,6.89-1.32Z"/><path class="cls-1" d="M524.66,210.76c-.17,3-1.53,4.57-4.02,4.76-7.29,.58-14.6,1.02-21.9,1.47-1.59,.1-2.3-.97-1.65-2.26,.64-1.27,1.65-2.87,2.84-3.25,2.87-.92,5.94-1.21,8.93-1.77,1.2-.23,2.41-.74,3.6-.69,1,.04,1.97,.72,2.96,1.1,.47,.18,1.22,.62,1.39,.46,2.72-2.57,5.13-.14,7.85,.17Z"/><path d="M193.96,190.98c-1.22,2.35-1.92,4.56-3.3,6.18-1.99,2.31-5.04,1.55-5.98-1.38-.98-3.04-.54-6.07,1.89-8.26,.96-.86,3.15-1.57,4-1.06,1.39,.85,2.15,2.75,3.39,4.52Zm-6.12,4.62c2.68-1.4,3.36-4.22,1.6-6.72-2.55,1.6-3.12,3.99-1.6,6.72Z"/><path d="M234.16,181.76c-.3,3.85-1.56,6.15-4.2,7.52-2.61,1.35-4.99,.03-5.3-2.87-.31-2.86,.7-5.31,3.01-6.87,1.12-.76,3.08-1.25,4.19-.78,1.19,.51,1.82,2.31,2.3,3Zm-3.23-.63c-3.11,1.1-4.04,2.92-3.13,5.78,2.86-.76,3.83-2.47,3.13-5.78Z"/><path d="M214.12,195.81c.29,.83,.89,1.62,.73,2.22-.5,1.92-1.17,3.82-2.01,5.63-.23,.5-1.28,.94-1.9,.88-.96-.1-1.92-.57-2.78-1.05-.89-.49-1.67-1.18-2.5-1.78,.79-.79,1.5-1.69,2.38-2.35,1.24-.92,2.6-1.68,3.92-2.47,.54-.32,1.13-.57,2.15-1.08Z"/><path d="M221.94,213.43c-.81,.76-1.49,1.89-2.45,2.22-3.93,1.38-7.94,2.57-11.95,3.71-.5,.14-1.2-.42-1.81-.66,.37-.62,.6-1.59,1.14-1.81,1.75-.72,3.65-1.08,5.43-1.75,2.42-.91,4.75-2.06,7.18-2.94,.64-.23,1.51,.14,2.27,.23,.07,.33,.13,.66,.2,.99Z"/><path d="M221.03,183.05c-.46-.34-1.07-.57-1.25-.98-.21-.49-.24-1.26,.01-1.68,.86-1.44,1.81-2.85,2.88-4.14,.35-.42,1.3-.77,1.74-.59,.45,.18,1,1.27,.83,1.6-.96,1.81-2.12,3.52-3.26,5.23-.17,.25-.58,.34-.96,.55Z"/><path d="M196.82,185.74c-.61,.94-.8,1.54-1.19,1.74-.39,.19-1.13,.16-1.46-.11-1.37-1.1-2.72-2.26-3.92-3.54-.4-.42-.49-1.3-.4-1.93,.04-.3,1.04-.83,1.2-.72,1.95,1.44,3.81,2.99,5.77,4.56Z"/><path d="M48.65,134.9c0-3.08-.15-6.18,.08-9.25,.09-1.18,1.04-2.3,1.6-3.44,.86,.91,2.04,1.69,2.52,2.77,1.57,3.56,2.85,7.25,4.32,10.85,.64,1.57,1.71,3,2.16,4.61,.25,.89-.35,2.02-.56,3.05-.75-.61-1.86-1.06-2.19-1.85-1.54-3.67-2.85-7.44-4.26-11.17-.15-.41-.36-.79-.8-1.73-.27,3.29-.42,6.01-.76,8.71-.1,.77-.6,1.94-1.15,2.09-.66,.18-1.76-.34-2.33-.9-1.34-1.31-2.47-2.82-4.06-4.7,.48,4.13,.88,7.62,1.28,11.11,.07,.63,.34,1.35,.13,1.87-.28,.71-.93,1.28-1.42,1.91-.42-.6-1.12-1.16-1.21-1.81-.63-4.49-1.11-9-1.7-13.49-.14-1.06-.24-2.29-.83-3.09-1.32-1.79,.15-2.49,1.15-3.19,.21-.15,1.44,.89,2,1.55,1.81,2.1,3.53,4.27,5.28,6.42,.24-.11,.49-.22,.73-.32Z"/><path d="M104.8,120.73c-.24-1.34-.35-2.72-.74-4.01-1.28-4.25-2.74-8.45-3.92-12.72-.24-.87,.44-2,.69-3.01,.65,.7,1.62,1.29,1.9,2.11,1.61,4.8,3.15,9.63,4.53,14.5,.61,2.17,.56,4.49-1.78,5.73-2.3,1.22-3.96-.3-5.41-1.87-1.15-1.25-2.16-2.63-3.7-4.53-.19,2.67-.33,4.69-.5,6.71-.09,1.08-.13,2.19-.39,3.23-.52,2.08-1.7,2.51-3.32,1.08-1.13-1-2.08-2.28-2.88-3.58-1.62-2.62-3.13-5.31-4.57-8.03-.33-.62-.4-1.54-.21-2.22,.1-.35,1.18-.79,1.53-.62,.58,.28,1.01,.99,1.35,1.6,1.67,3.08,3.3,6.19,5.57,9.17,.26-2.42,.36-4.88,.85-7.25,.26-1.27,1.22-2.39,1.86-3.58,1.08,.7,2.34,1.23,3.2,2.14,1.7,1.8,3.19,3.8,4.76,5.72l1.18-.56Z"/><path d="M63.56,126.64c1.44-1.17,2.83-2.42,4.36-3.47,.6-.42,1.52-.38,2.29-.55-.17,.84-.05,1.96-.55,2.48-1.31,1.36-3,2.36-4.31,3.72-.59,.61-1.11,1.91-.86,2.61,.57,1.6,1.59,3.06,2.6,4.46,.08,.11,1.52-.57,2.15-1.09,.68-.57,1.04-1.55,1.74-2.05,.51-.36,1.37-.24,2.07-.33,.06,.81,.47,1.86,.11,2.38-.8,1.16-1.92,2.14-3.03,3.03-2.28,1.82-5.55,1.09-6.84-1.72-1.01-2.2-1.42-4.66-2.3-6.93-.72-1.84-1.92-3.51-2.53-5.37-.29-.89-.09-2.53,.53-3.02,1.95-1.56,4.14-2.88,6.39-3.99,.75-.37,1.95,.15,2.94,.27-.53,.71-.96,1.56-1.62,2.11-1.18,.98-2.94,1.54-3.64,2.74-.68,1.17-.33,2.94-.43,4.45,.31,.09,.63,.19,.94,.28Z"/><path d="M73.81,122.58c-.29-1.37-.57-2.74-.88-4.11-.37-1.58,1.81-4.46,3.46-4.56,4.25-.25,7.05,1.36,8.72,5.04,1.42,3.14,.7,9.33-1.84,11.16-1.41,1.01-3.68,1.36-5.47,1.16-2.35-.27-3.57-2.34-4.06-4.57-.29-1.31-.22-2.69-.31-4.04,.13-.02,.25-.05,.38-.07Zm2.52-.5c-.08,0-.15,.01-.23,.02,.15,1.53,.11,3.11,.51,4.57,.57,2.1,3.32,2.94,4.8,1.65,2.82-2.46,2.04-9.33-1.26-11.13-2.09-1.14-3.67-.25-3.81,2.17-.05,.91,0,1.82,0,2.72Z"/><path d="M118.54,109.23c-.44,.59-.98,1.33-1.52,2.06-.77-.6-1.93-1.05-2.24-1.84-1.6-4.11-3.03-8.29-4.39-12.49-.18-.56,.37-1.37,.58-2.06,.64,.35,1.61,.54,1.86,1.06,1.02,2.2,1.76,4.53,2.73,6.76,.69,1.58,1.6,3.05,2.37,4.59,.23,.46,.32,1,.61,1.91Z"/><path d="M120.59,125c-.85-1.31-1.83-2.3-1.64-2.62,.61-1.05,1.64-1.85,2.51-2.74,.41,.5,1.26,1.14,1.15,1.47-.39,1.16-1.1,2.2-2.02,3.89Z"/><path class="cls-1" d="M187.84,195.6c-1.51-2.73-.94-5.12,1.6-6.72,1.75,2.5,1.08,5.32-1.6,6.72Z"/><path class="cls-1" d="M230.94,181.14c.7,3.31-.27,5.02-3.13,5.78-.91-2.85,.02-4.67,3.13-5.78Z"/><path class="cls-1" d="M76.33,122.08c0-.91-.04-1.82,0-2.72,.14-2.42,1.72-3.31,3.81-2.17,3.3,1.8,4.08,8.67,1.26,11.13-1.48,1.29-4.23,.45-4.8-1.65-.4-1.46-.36-3.04-.51-4.57,.08,0,.15-.01,.23-.02Z"/></svg>